Coordinates
version=1
nRows=29
nColumns=22
inDegrees=yes

Units are S.I. units (second, meters, Newtons, ...)
If the header above contains a line with 'inDegrees', this indicates whether rotational values are in degrees (yes) or radians (no).

endheader
time	pelvis_tilt	pelvis_list	pelvis_rotation	pelvis_tx	pelvis_ty	pelvis_tz	hip_flexion_r	hip_adduction_r	hip_rotation_r	knee_angle_r	ankle_angle_r	subtalar_angle_r	hip_flexion_l	hip_adduction_l	hip_rotation_l	knee_angle_l	ankle_angle_l	subtalar_angle_l	lumbar_extension	lumbar_bending	lumbar_rotation
      0.48000000	    -10.25315962	      1.30695847	    -36.87958574	      0.21356619	      0.86248249	      0.26933768	     32.86247605	     11.48752036	     -6.76754346	    -62.95690505	     38.14982803	     -8.14116163	     59.00828514	     -9.91822595	      2.94894508	    -99.03980598	     15.39025469	      1.93900744	    -14.00573876	      2.31174022	     11.78761647
      0.49000000	     -9.82116743	      1.04867111	    -36.85366825	      0.24626208	      0.86705702	      0.29223467	     28.91304119	     11.70352728	     -5.57120679	    -62.03308992	     37.58343110	     -6.36885924	     61.31428114	    -10.39104759	      2.04228851	    -94.80140683	     14.80377296	      2.18331272	    -13.80351667	      1.86062663	     12.97265101
      0.50000000	     -9.43575318	      0.92572260	    -36.88949304	      0.27919214	      0.87187458	      0.31518800	     25.25819138	     11.83990596	     -4.10688931	    -61.25121301	     36.11208643	     -4.14325050	     62.95139019	    -10.81459759	      0.76131626	    -89.78714174	     13.95111920	      2.98236127	    -13.44529197	      1.35278689	     13.99781647
      0.51000000	     -9.00939569	      0.87930914	    -36.98022427	      0.31239735	      0.87700450	      0.33807575	     21.90047040	     11.85792397	     -2.42782565	    -60.74916140	     33.63403416	     -1.77923346	     63.77725904	    -11.11401758	     -0.80481854	    -84.10516085	     12.86632335	      4.51503450	    -13.08490783	      0.79927661	     14.85374414
      0.52000000	     -8.72055734	      0.87554734	    -37.18846437	      0.34574618	      0.88196858	      0.36093155	     19.08804688	     11.93152689	     -0.52834863	    -60.64986240	     30.30709941	      0.77831506	     64.02489797	    -11.38203868	     -2.44762796	    -77.98790749	     11.36440580	      7.04113033	    -12.58155788	      0.36173342	     15.64544816
      0.53000000	     -8.38833516	      0.86166736	    -37.41796865	      0.37943696	      0.88690349	      0.38355553	     16.70344607	     11.91445130	      1.38638270	    -61.00550302	     26.25360558	      2.92996758	     63.53756743	    -11.43570179	     -4.07939697	    -71.60034307	      9.64863717	     10.35725248	    -12.15603005	     -0.00744900	     16.24493570
      0.54000000	     -8.13941683	      0.81093647	    -37.69519715	      0.41334111	      0.89135766	      0.40597926	     14.90508495	     11.93483360	      3.24312777	    -61.84619555	     21.86076917	      4.46248966	     62.57712181	    -11.35722032	     -5.50935833	    -65.26675107	      7.67865184	     14.25819779	    -11.70783608	     -0.20528286	     16.73876464
      0.55000000	     -7.91725537	      0.71382597	    -37.93463859	      0.44750475	      0.89518402	      0.42803373	     13.68614783	     11.91457308	      4.82624136	    -63.16801739	     17.57201578	      5.13804975	     61.22976759	    -11.08140770	     -6.65810716	    -59.29273566	      5.68289957	     18.20436489	    -11.31120603	     -0.25111183	     17.04390633
      0.56000000	     -7.69773553	      0.60331326	    -38.10132122	      0.48182756	      0.89819909	      0.44962692	     13.08388589	     11.78666386	      6.00823202	    -64.95430401	     13.88116713	      4.98800855	     59.64489388	    -10.61126033	     -7.50763925	    -54.00293985	      3.87714157	     21.54742765	    -10.98010531	     -0.20358780	     17.11127982
      0.57000000	     -7.49196597	      0.53557132	    -38.15908756	      0.51613045	      0.90020019	      0.47061093	     13.19038879	     11.48320501	      6.68974656	    -67.19591634	     11.14359167	      4.24841174	     58.01468819	     -9.94788142	     -8.05326839	    -49.69233969	      2.53427559	     23.73109383	    -10.69086897	     -0.12002329	     16.94677681
      0.58000000	     -7.28167783	      0.55614735	    -38.09196493	      0.55021556	      0.90111802	      0.49091067	     14.03039019	     10.94648459	      6.87360727	    -69.83933133	      9.52712813	      3.17114624	     56.47324207	     -9.11658328	     -8.37932339	    -46.58857422	      1.80350866	     24.32227180	    -10.45210830	     -0.06900648	     16.48551304
      0.59000000	     -7.05698906	      0.69749689	    -37.90004224	      0.58389899	      0.90092959	      0.51051030	     15.59927254	     10.14792356	      6.63452788	    -72.80159636	      8.96836657	      1.99205469	     55.11400351	     -8.13442986	     -8.55542823	    -44.80678405	      1.82393414	     23.08547346	    -10.26458500	     -0.10820373	     15.72528081
      0.60000000	     -6.77959052	      0.92512026	    -37.58850303	      0.61710246	      0.89975750	      0.52942101	     17.78601186	      9.09665336	      6.07256584	    -75.94699166	      9.21496528	      0.63118517	     53.92590546	     -7.00676234	     -8.57393282	    -44.33987386	      2.66415288	     20.08595207	    -10.19632187	     -0.23956890	     14.67031402
      0.61000000	     -6.41710660	      1.26150971	    -37.21481747	      0.64978504	      0.89767258	      0.54781259	     20.50094494	      7.79783451	      5.38011646	    -79.14573704	     10.07478656	     -0.90425139	     52.88156969	     -5.75134899	     -8.51734153	    -45.06078540	      4.37413861	     15.70902363	    -10.24211687	     -0.52454773	     13.35861489
      0.62000000	     -5.94807742	      1.63913369	    -36.78823739	      0.68202919	      0.89486028	      0.56577154	     23.58640376	      6.32262842	      4.65795514	    -82.22217125	     11.34296382	     -2.64584033	     51.89651493	     -4.37230962	     -8.32600457	    -46.74828424	      6.85561793	     10.63739744	    -10.45407923	     -0.90274294	     11.81060961
      0.63000000	     -5.36447039	      2.01139195	    -36.33325844	      0.71390782	      0.89152640	      0.58345131	     26.91080323	      4.74769283	      3.98730382	    -85.00960081	     12.85846946	     -4.54154590	     50.87879340	     -2.89933378	     -8.00608757	    -49.12059616	      9.92969455	      5.69856379	    -10.84767297	     -1.33318684	     10.06329358
      0.64000000	     -4.68335778	      2.34547650	    -35.87359376	      0.74548861	      0.88790644	      0.60100529	     30.37404609	      3.15357575	      3.40816224	    -87.35050996	     14.46713481	     -6.47672868	     49.74041080	     -1.37288054	     -7.57659044	    -51.86411705	     13.37941584	      1.49564858	    -11.40192305	     -1.76765553	      8.17525984
      0.65000000	     -3.94572636	      2.66402374	    -35.43914180	      0.77680418	      0.88420289	      0.61855057	     33.94803173	      1.57714011	      2.93137979	    -89.12227372	     15.97939009	     -8.27286939	     48.43242574	      0.18300599	     -7.08324167	    -54.67539558	     16.99872514	     -1.71050177	    -12.04157226	     -2.19685672	      6.21436789
      0.66000000	     -3.19915600	      2.91903263	    -35.05492719	      0.80789707	      0.88071626	      0.63623157	     37.52899557	      0.11853012	      2.51362641	    -90.18391209	     17.38716056	     -9.81247768	     46.88505144	      1.67522044	     -6.55840886	    -57.32816463	     20.61376769	     -4.01276818	    -12.73099777	     -2.54078500	      4.26850723
      0.67000000	     -2.49858232	      3.17411768	    -34.73898225	      0.83880865	      0.87763482	      0.65409908	     41.11749866	     -1.24686634	      2.10964099	    -90.46055236	     18.43736949	    -10.90455339	     45.11130713	      3.09331105	     -6.06301015	    -59.63246438	     24.07691094	     -5.51636012	    -13.35569644	     -2.82693080	      2.39925153
      0.68000000	     -1.90415263	      3.37630142	    -34.51608840	      0.86957680	      0.87519026	      0.67225122	     44.59573374	     -2.43762344	      1.61892001	    -89.85910274	     19.17478422	    -11.49180431	     43.11194682	      4.31738544	     -5.62057672	    -61.52626760	     27.25324865	     -6.42489396	    -13.87497784	     -2.97067556	      0.70230554
      0.69000000	     -1.45258259	      3.52045779	    -34.40370066	      0.90024656	      0.87352127	      0.69070249	     47.87230000	     -3.44317010	      0.95788314	    -88.34661300	     19.48732807	    -11.53295507	     40.92248186	      5.29003661	     -5.26110401	    -62.99621028	     30.01298035	     -6.87750019	    -14.24392653	     -2.94856679	     -0.75486298
      0.70000000	     -1.15365713	      3.59716896	    -34.39170203	      0.93085550	      0.87271792	      0.70942500	     50.82743866	     -4.27857659	      0.04010499	    -85.91933252	     19.30543947	    -11.15268847	     38.58476716	      5.98950425	     -4.98992092	    -64.08369870	     32.21829547	     -6.91281936	    -14.45662184	     -2.74756044	     -1.95826364
      0.71000000	     -1.03380445	      3.58353296	    -34.49131065	      0.96138839	      0.87273843	      0.72844457	     53.37430323	     -4.89740180	     -1.17311317	    -82.62355277	     18.59051167	     -9.89841093	     36.18324636	      6.35376160	     -4.83115960	    -64.90030805	     33.78823666	     -6.62234875	    -14.50512259	     -2.34405251	     -2.83645791
      0.72000000	     -1.06400656	      3.50085611	    -34.62911887	      0.99187840	      0.87354315	      0.74767256	     55.41709306	     -5.36213059	     -2.70764813	    -78.53137218	     17.25166055	     -8.24962461	     33.78994132	      6.46283176	     -4.72722537	    -65.55145169	     34.57831531	     -5.91564316	    -14.42455432	     -1.77770889	     -3.50234008
      0.73000000	     -1.23227279	      3.35165493	    -34.77604437	      1.02232281	      0.87501463	      0.76716410	     56.90272565	     -5.64195681	     -4.50650066	    -73.75264933	     15.28845156	     -5.95668994	     31.50417580	      6.32099401	     -4.66771983	    -66.19603869	     34.44716590	     -4.76502658	    -14.23315759	     -1.07732605	     -3.99039890
      0.74000000	     -1.52268151	      3.13611353	    -34.86758585	      1.05272756	      0.87698720	      0.78690247	     57.81366650	     -5.71421979	     -6.47435039	    -68.43692223	     12.78845472	     -3.00760312	     29.42517301	      5.98449098	     -4.54757671	    -66.98240510	     33.35714331	     -3.20810707	    -13.96709142	     -0.26113746	     -4.34669423
      0.75000000	     -1.87686772	      2.87874087	    -34.86917978	      1.08310171	      0.87928213	      0.80697129	     58.17566411	     -5.58064118	     -8.44701408	    -62.79651456	      9.83917504	      0.70452076	     27.61926185	      5.51070680	     -4.33389528	    -68.03302195	     31.32988532	     -1.26860572	    -13.66607674	      0.58213109	     -4.63443422
      0.76000000	     -2.23816645	      2.59835534	    -34.75584948	      1.11344538	      0.88171023	      0.82741405	     58.05040482	     -5.24568825	    -10.22197775	    -57.08298819	      6.68027040	      5.13564605	     26.14166060	      4.95877706	     -3.98440142	    -69.43602101	     28.35897660	      0.90707892	    -13.37613389	      1.38296024	     -4.93415333
